Coordinates
nRows=6
nColumns=34

# SIMM Motion File Header:
name Coordinates
datacolumns 34
datarows 6
otherdata 1
range 0.44500000000000006000 0.44999999999999996000

Units are S.I. units (second, meters, Newtons, ...)
Angles are in degrees.

endheader
time	pelvis_tz	pelvis_tx	pelvis_ty	pelvis_tilt	pelvis_list	pelvis_rotation	hip_flexion_r	hip_adduction_r	hip_rotation_r	knee_r_tx	knee_r_ty	knee_angle_r	tib_pat_r_tx	tib_pat_r_ty	tib_pat_r_r1	ankle_angle_r	subtalar_angle_r	mtp_angle_r	hip_flexion_l	hip_adduction_l	hip_rotation_l	knee_l_tx	knee_l_ty	knee_angle_l	tib_pat_l_tx	tib_pat_l_ty	tib_pat_l_r1	ankle_angle_l	subtalar_angle_l	mtp_angle_l	lumbar_extension	lumbar_bending	lumbar_rotation
      0.44500000000000006000	     -0.25657976619810136000	      0.27813920438629586000	      0.91078407532518024000	     -1.31037477984823550000	     -0.14202738509005236000	     -2.40865648310980470000	     -8.85885239398876760000	      2.37842195588785850000	     16.52618318484369900000	     -0.00417273857957635700	     -0.41345813365107698000	     -4.35292997431495010000	      0.04611371449060794300	     -0.02113674046699962400	      4.65744128968547240000	     15.76002477526636800000	     -0.00000000000000887895	     -0.00000000000016565737	     23.78169647066149400000	     -1.48385072677811940000	     -7.26407671746445250000	     -0.00118499064759849900	     -0.41490426347673437000	    -19.34584183855250600000	      0.04397126068419340100	     -0.02051067398739401700	     13.42458484325196200000	      3.36788287538964550000	      0.00000000000006677067	     -0.00000000000009582494	     -5.12724824700111630000	      4.13540570961534470000	      2.89858657251895880000
      0.44600000000000006000	     -0.25669019606490640000	      0.27908082133011125000	      0.91056283999556464000	     -1.30247767382213950000	     -0.19053284632157824000	     -2.41165496373016100000	     -8.92197640489762730000	      2.42629180776797780000	     16.54668545682821800000	     -0.00416836415854925960	     -0.41346065462884424000	     -4.38435227122069460000	      0.04610994331148223600	     -0.02113545093056055200	      4.68721346627985280000	     15.81441476238408900000	     -0.00000000000000894881	     -0.00000000000016656681	     23.77115770641124100000	     -1.50040782615537950000	     -7.21362951372326310000	     -0.00125750895445560100	     -0.41486534702793443000	    -19.01653759693616400000	      0.04401774747617024500	     -0.02052175796320175600	     13.32243856479889200000	      3.32695004295043970000	      0.00000000000006691764	     -0.00000000000009631502	     -5.15543581019460890000	      4.20429117868478300000	      2.89371352806001260000
      0.44700000000000006000	     -0.25680062593171149000	      0.28002243827392670000	      0.91034160466594916000	     -1.29458056779604360000	     -0.23903830755310412000	     -2.41465344435051720000	     -8.98510041580648530000	      2.47416165964809660000	     16.56718772881273700000	     -0.00416398973752216220	     -0.41346317560661150000	     -4.41577456812644000000	      0.04610617213235652200	     -0.02113416139412147700	      4.71698564287423230000	     15.86880474950181300000	     -0.00000000000000901866	     -0.00000000000016747625	     23.76061894216098800000	     -1.51696492553263940000	     -7.16318230998207280000	     -0.00133002726131270290	     -0.41482643057913449000	    -18.68723335531982600000	      0.04406423426814708200	     -0.02053284193900949800	     13.22029228634582200000	      3.28601721051123350000	      0.00000000000006706462	     -0.00000000000009680510	     -5.18362337338810160000	      4.27317664775422030000	      2.88884048360106680000
      0.44800000000000006000	     -0.25691027601647409000	      0.28096553469832330000	      0.91011926842645785000	     -1.28658008731632270000	     -0.28708624795966292000	     -2.41803587898062440000	     -9.04792192913861370000	      2.52166601116181570000	     16.58765331283092700000	     -0.00415950344055816130	     -0.41346575662894280000	     -4.44791507072773840000	      0.04610229135776918600	     -0.02113283488432847500	      4.74736035531393520000	     15.92106673675003100000	     -0.00000000000000908849	     -0.00000000000016843307	     23.74949553021222900000	     -1.53344286773744520000	     -7.11293928400825500000	     -0.00140267566556301410	     -0.41478832401328442000	    -18.35999676852985000000	      0.04411002978085700600	     -0.02054383913762855600	     13.11487945092342700000	      3.24466493822046060000	      0.00000000000006720194	     -0.00000000000009731580	     -5.21182120722798640000	      4.34130833339723490000	      2.88422674704045520000
      0.44899999999999995000	     -0.25701914631919431000	      0.28191011060330107000	      0.90989583127709084000	     -1.27847623238297790000	     -0.33467666754125058000	     -2.42180226762048090000	     -9.11044094489400540000	      2.56880486230912950000	     16.60808220888279200000	     -0.00415490526765725610	     -0.41346839769583804000	     -4.48077377902458450000	      0.04609830098772022000	     -0.02113147140118154200	      4.77833760359895620000	     15.97120072412874900000	     -0.00000000000000915830	     -0.00000000000016943727	     23.73778747056497100000	     -1.54984165276979490000	     -7.06290043580181240000	     -0.00147545416720652660	     -0.41475102733038421000	    -18.03482783656627200000	      0.04415513401430000400	     -0.02055474955905893500	     13.00620005853172700000	      3.20289322607812640000	      0.00000000000006732961	     -0.00000000000009784712	     -5.24002931171426050000	      4.40868623561381860000	      2.87987231837817830000
      0.44999999999999996000	     -0.25712801662191459000	      0.28285468650827889000	      0.90967239412772372000	     -1.27037237744963230000	     -0.38226708712284274000	     -2.42556865626033820000	     -9.17295996064940230000	      2.61594371345644830000	     16.62851110493465600000	     -0.00415030709475635100	     -0.41347103876273328000	     -4.51363248732143600000	      0.04609431061767125400	     -0.02113010791803460900	      4.80931485188398170000	     16.02133471150747500000	     -0.00000000000000922811	     -0.00000000000017044147	     23.72607941091770900000	     -1.56624043780214640000	     -7.01286158759536440000	     -0.00154823266885004680	     -0.41471373064748396000	    -17.70965890460265900000	      0.04420023824774300900	     -0.02056565998048931500	     12.89752066614000900000	      3.16112151393578640000	      0.00000000000006745729	     -0.00000000000009837845	     -5.26823741620053720000	      4.47606413783040940000	      2.87551788971590130000
